<?xml version="1.0" standalone="no"?>
<!DOCTYPE svg PUBLIC "-//W3C//DTD SVG 20010904//EN"
 "http://www.w3.org/TR/2001/REC-SVG-20010904/DTD/svg10.dtd">
<svg version="1.0" xmlns="http://www.w3.org/2000/svg"
 width="700.000000pt" height="700.000000pt" viewBox="0 0 700.000000 700.000000"
 preserveAspectRatio="xMidYMid meet">
<metadata>
Created by potrace 1.11, written by Peter Selinger 2001-2013
</metadata>
<g transform="translate(0.000000,700.000000) scale(0.100000,-0.100000)"
fill="#000000" stroke="none">
<path d="M3278 6995 c-1 -1 -39 -5 -83 -9 -44 -3 -96 -8 -115 -11 -19 -3 -55
-7 -80 -10 -25 -3 -56 -7 -70 -10 -14 -3 -52 -10 -85 -16 -33 -6 -121 -26
-195 -44 -499 -123 -980 -368 -1390 -709 -110 -91 -307 -285 -390 -382 -36
-42 -72 -84 -80 -94 -136 -161 -314 -436 -423 -655 -139 -279 -251 -610 -301
-885 -9 -47 -18 -98 -21 -115 -3 -16 -8 -48 -11 -70 -3 -22 -7 -56 -9 -75 -27
-203 -27 -678 -1 -817 2 -10 7 -43 10 -73 7 -62 12 -94 26 -165 6 -27 12 -59
14 -71 25 -130 131 -484 170 -569 8 -16 26 -59 41 -95 119 -285 319 -608 538
-870 69 -82 290 -309 372 -381 421 -372 972 -654 1520 -779 151 -35 159 -36
215 -44 70 -10 126 -18 150 -22 120 -19 555 -26 725 -10 685 60 1346 326 1880
757 222 179 424 385 584 594 17 22 34 45 39 50 130 159 351 556 446 802 75
194 168 520 191 668 8 56 15 96 20 125 3 14 7 56 11 93 3 37 8 78 11 90 2 12
6 132 8 267 4 351 -24 592 -101 891 -19 74 -36 143 -39 154 -7 31 -89 260
-120 335 -40 98 -143 304 -199 400 -50 86 -200 314 -220 336 -6 7 -20 24 -31
40 -11 15 -31 41 -45 58 -14 17 -34 42 -45 55 -433 531 -1075 949 -1751 1139
-77 22 -157 43 -178 46 -21 4 -41 8 -45 10 -3 2 -22 7 -41 10 -19 3 -46 8 -60
10 -23 5 -190 28 -290 42 -47 6 -546 15 -552 9z m404 -639 c100 -7 119 -8 223
-22 173 -22 447 -94 630 -165 297 -115 653 -333 860 -524 172 -159 293 -291
396 -430 24 -33 50 -66 57 -73 6 -7 12 -17 12 -22 0 -5 6 -15 13 -22 20 -20
126 -200 179 -303 94 -185 174 -398 224 -595 40 -160 65 -313 79 -495 8 -92 8
-336 1 -405 -3 -30 -8 -82 -11 -115 -7 -84 -41 -272 -70 -385 -98 -391 -285
-766 -542 -1090 -98 -123 -342 -366 -451 -449 -162 -123 -218 -161 -345 -235
-246 -145 -587 -277 -837 -326 -30 -5 -66 -13 -80 -15 -44 -9 -73 -14 -129
-20 -30 -4 -62 -8 -71 -10 -110 -21 -460 -21 -637 0 -145 17 -120 13 -258 41
-286 57 -613 181 -850 322 -128 76 -306 196 -351 237 -6 5 -37 30 -67 55 -54
44 -286 274 -339 336 -95 113 -288 389 -288 413 0 5 -4 11 -9 13 -14 5 -157
306 -201 421 -58 155 -108 339 -144 532 -2 11 -7 45 -10 76 -4 31 -8 66 -10
76 -16 80 -23 408 -12 526 4 31 8 83 11 115 21 227 106 557 200 780 29 68 147
306 169 342 114 183 265 389 346 471 14 15 53 55 86 90 142 148 281 263 469
387 120 80 354 206 483 260 160 68 482 158 632 177 30 4 62 9 70 10 39 7 112
15 185 20 43 3 80 7 81 8 4 4 204 -1 306 -7z"/>
<path d="M3438 5715 c-111 -22 -194 -97 -230 -208 -15 -47 -17 -142 -17 -1052
0 -1082 -1 -1041 53 -1131 10 -17 233 -245 495 -507 537 -537 530 -531 666
-531 251 -1 399 260 271 478 -13 23 -202 219 -420 436 -218 217 -404 409 -414
425 -15 27 -17 106 -18 925 -2 947 -1 943 -49 1025 -65 112 -199 168 -337 140z"/>
</g>
</svg>
